<mxfile host="app.diagrams.net" modified="2024-05-07T11:55:17.670Z" agent="Mozilla/5.0 (Windows NT 10.0; Win64; x64; rv:124.0) Gecko/20100101 Firefox/124.0" etag="Wh4ceYs2t__Fy7q8xQho" version="24.3.1" type="github">
  <diagram name="Page-1" id="fd_hAKjFNYpGGn4z0pOC">
    <mxGraphModel dx="3028" dy="1390" grid="1" gridSize="10" guides="1" tooltips="1" connect="1" arrows="1" fold="1" page="1" pageScale="1" pageWidth="827" pageHeight="1169" math="0" shadow="0">
      <root>
        <mxCell id="0" />
        <mxCell id="1" parent="0" />
        <mxCell id="RLbUbrMSvnKXsrcCU6p0-1" value="" style="rhombus;whiteSpace=wrap;html=1;" vertex="1" parent="1">
          <mxGeometry x="220" y="140" width="330" height="280" as="geometry" />
        </mxCell>
      </root>
    </mxGraphModel>
  </diagram>
</mxfile>
